<?xml version="1.0" encoding="UTF-8"?>
<!DOCTYPE svg PUBLIC "-//W3C//DTD SVG 1.1//EN" "http://www.w3.org/Graphics/SVG/1.1/DTD/svg11.dtd">
<svg xmlns="http://www.w3.org/2000/svg" version="1.1" width="1440px" height="74px" style="shape-rendering:geometricPrecision; text-rendering:geometricPrecision; image-rendering:optimizeQuality; fill-rule:evenodd; clip-rule:evenodd" xmlns:xlink="http://www.w3.org/1999/xlink">
<g><path style="opacity:1" fill="#15a6cc" d="M -0.5,-0.5 C 0.833333,-0.5 2.16667,-0.5 3.5,-0.5C 5.45596,5.71817 9.12263,11.2182 14.5,16C 15.3375,19.6223 17.3375,22.9556 20.5,26C 20.1667,26.3333 19.8333,26.6667 19.5,27C 29.1164,42.2779 39.1164,57.2779 49.5,72C 48.944,72.3826 48.6107,72.8826 48.5,73.5C 44.5,73.5 40.5,73.5 36.5,73.5C 36.4559,69.9103 34.7892,67.4103 31.5,66C 31.8333,65.6667 32.1667,65.3333 32.5,65C 23.9716,51.3373 15.4716,38.1706 7,25.5C 4.63698,21.6553 2.13698,17.9887 -0.5,14.5C -0.5,9.5 -0.5,4.5 -0.5,-0.5 Z"/></g>
<g><path style="opacity:1" fill="#1aa7c9" d="M 3.5,-0.5 C 5.83333,-0.5 8.16667,-0.5 10.5,-0.5C 11.8319,2.16461 13.4986,4.66461 15.5,7C 15.1667,7.33333 14.8333,7.66667 14.5,8C 17.0815,9.97488 19.0815,12.4749 20.5,15.5C 21.5,16 22.5,16.5 23.5,17C 22.9778,19.2895 23.6445,21.4562 25.5,23.5C 25.2907,24.086 24.9574,24.586 24.5,25C 26.359,25.6839 28.0257,26.6839 29.5,28C 28.2092,30.0902 28.8758,31.4236 31.5,32C 31.1667,32.3333 30.8333,32.6667 30.5,33C 33.0109,35.1793 35.1776,37.6793 37,40.5C 40.3374,46.5091 43.6707,52.5091 47,58.5C 49.5249,60.815 51.6916,63.9816 53.5,68C 52.0773,69.412 52.244,70.5787 54,71.5C 55.5793,70.828 56.746,71.4947 57.5,73.5C 54.5,73.5 51.5,73.5 48.5,73.5C 48.6107,72.8826 48.944,72.3826 49.5,72C 39.1164,57.2779 29.1164,42.2779 19.5,27C 19.8333,26.6667 20.1667,26.3333 20.5,26C 17.3375,22.9556 15.3375,19.6223 14.5,16C 9.12263,11.2182 5.45596,5.71817 3.5,-0.5 Z"/></g>
<g><path style="opacity:1" fill="#1da9c6" d="M 10.5,-0.5 C 12.8333,-0.5 15.1667,-0.5 17.5,-0.5C 18.8981,2.82354 21.2315,5.99021 24.5,9C 24.1654,10.5026 24.1654,11.836 24.5,13C 26.8833,13.065 27.55,13.8983 26.5,15.5C 27.3006,18.1334 28.9673,19.9667 31.5,21C 31.1667,21.3333 30.8333,21.6667 30.5,22C 36.866,29.9274 42.866,38.4274 48.5,47.5C 48.2545,48.7732 48.2545,49.9399 48.5,51C 49.9308,51.4652 51.0975,52.2986 52,53.5C 54.4821,58.6257 57.1488,63.6257 60,68.5C 62.0494,69.7138 63.5494,71.3805 64.5,73.5C 62.1667,73.5 59.8333,73.5 57.5,73.5C 56.746,71.4947 55.5793,70.828 54,71.5C 52.244,70.5787 52.0773,69.412 53.5,68C 51.6916,63.9816 49.5249,60.815 47,58.5C 43.6707,52.5091 40.3374,46.5091 37,40.5C 35.1776,37.6793 33.0109,35.1793 30.5,33C 30.8333,32.6667 31.1667,32.3333 31.5,32C 28.8758,31.4236 28.2092,30.0902 29.5,28C 28.0257,26.6839 26.359,25.6839 24.5,25C 24.9574,24.586 25.2907,24.086 25.5,23.5C 23.6445,21.4562 22.9778,19.2895 23.5,17C 22.5,16.5 21.5,16 20.5,15.5C 19.0815,12.4749 17.0815,9.97488 14.5,8C 14.8333,7.66667 15.1667,7.33333 15.5,7C 13.4986,4.66461 11.8319,2.16461 10.5,-0.5 Z"/></g>
<g><path style="opacity:1" fill="#22aac2" d="M 17.5,-0.5 C 21.5,-0.5 25.5,-0.5 29.5,-0.5C 39.4779,15.8416 50.4779,33.0083 62.5,51C 62.1667,51.3333 61.8333,51.6667 61.5,52C 63.5,54 65.5,56 67.5,58C 67.1667,58.3333 66.8333,58.6667 66.5,59C 69.1139,61.8231 70.9473,64.6565 72,67.5C 72.3333,67.1667 72.6667,66.8333 73,66.5C 73.2491,69.3919 74.4158,71.7253 76.5,73.5C 72.5,73.5 68.5,73.5 64.5,73.5C 63.5494,71.3805 62.0494,69.7138 60,68.5C 57.1488,63.6257 54.4821,58.6257 52,53.5C 51.0975,52.2986 49.9308,51.4652 48.5,51C 48.2545,49.9399 48.2545,48.7732 48.5,47.5C 42.866,38.4274 36.866,29.9274 30.5,22C 30.8333,21.6667 31.1667,21.3333 31.5,21C 28.9673,19.9667 27.3006,18.1334 26.5,15.5C 27.55,13.8983 26.8833,13.065 24.5,13C 24.1654,11.836 24.1654,10.5026 24.5,9C 21.2315,5.99021 18.8981,2.82354 17.5,-0.5 Z"/></g>
<g><path style="opacity:1" fill="#28adbe" d="M 29.5,-0.5 C 33.5,-0.5 37.5,-0.5 41.5,-0.5C 43.6924,4.53239 46.5257,9.19906 50,13.5C 51,14.8333 52,14.8333 53,13.5C 53.7029,18.7382 55.8696,23.2382 59.5,27C 59.1667,27.3333 58.8333,27.6667 58.5,28C 64.7037,36.6095 71.0371,45.6095 77.5,55C 77.1667,55.3333 76.8333,55.6667 76.5,56C 79.3788,60.4274 82.7121,65.0941 86.5,70C 86.1667,70.3333 85.8333,70.6667 85.5,71C 86.9423,71.3768 87.9423,72.2101 88.5,73.5C 84.5,73.5 80.5,73.5 76.5,73.5C 74.4158,71.7253 73.2491,69.3919 73,66.5C 72.6667,66.8333 72.3333,67.1667 72,67.5C 70.9473,64.6565 69.1139,61.8231 66.5,59C 66.8333,58.6667 67.1667,58.3333 67.5,58C 65.5,56 63.5,54 61.5,52C 61.8333,51.6667 62.1667,51.3333 62.5,51C 50.4779,33.0083 39.4779,15.8416 29.5,-0.5 Z"/></g>
<g><path style="opacity:1" fill="#2eafb9" d="M 41.5,-0.5 C 45.8333,-0.5 50.1667,-0.5 54.5,-0.5C 55.1561,2.81499 56.8228,5.48165 59.5,7.5C 59.2907,8.08605 58.9574,8.58605 58.5,9C 61.8658,11.9923 64.5325,14.9923 66.5,18C 66.1667,18.3333 65.8333,18.6667 65.5,19C 68.6849,22.3911 70.6849,26.0577 71.5,30C 74.1681,32.0005 76.3348,34.1672 78,36.5C 85.5355,48.9216 93.0355,61.2549 100.5,73.5C 96.5,73.5 92.5,73.5 88.5,73.5C 87.9423,72.2101 86.9423,71.3768 85.5,71C 85.8333,70.6667 86.1667,70.3333 86.5,70C 82.7121,65.0941 79.3788,60.4274 76.5,56C 76.8333,55.6667 77.1667,55.3333 77.5,55C 71.0371,45.6095 64.7037,36.6095 58.5,28C 58.8333,27.6667 59.1667,27.3333 59.5,27C 55.8696,23.2382 53.7029,18.7382 53,13.5C 52,14.8333 51,14.8333 50,13.5C 46.5257,9.19906 43.6924,4.53239 41.5,-0.5 Z"/></g>
<g><path style="opacity:1" fill="#35b1b4" d="M 54.5,-0.5 C 59.1667,-0.5 63.8333,-0.5 68.5,-0.5C 69.2026,1.71572 70.5359,3.54905 72.5,5C 72.1667,5.33333 71.8333,5.66667 71.5,6C 86.688,28.2632 101.021,50.7632 114.5,73.5C 109.833,73.5 105.167,73.5 100.5,73.5C 93.0355,61.2549 85.5355,48.9216 78,36.5C 76.3348,34.1672 74.1681,32.0005 71.5,30C 70.6849,26.0577 68.6849,22.3911 65.5,19C 65.8333,18.6667 66.1667,18.3333 66.5,18C 64.5325,14.9923 61.8658,11.9923 58.5,9C 58.9574,8.58605 59.2907,8.08605 59.5,7.5C 56.8228,5.48165 55.1561,2.81499 54.5,-0.5 Z"/></g>
<g><path style="opacity:1" fill="#3bb4af" d="M 68.5,-0.5 C 72.5,-0.5 76.5,-0.5 80.5,-0.5C 81.6619,0.677944 82.6619,1.84461 83.5,3C 83.1667,3.33333 82.8333,3.66667 82.5,4C 86.8251,7.23993 89.6584,11.0733 91,15.5C 91.7504,16.1258 92.5838,16.6258 93.5,17C 92.8438,19.3304 93.8438,20.9971 96.5,22C 96.1667,22.3333 95.8333,22.6667 95.5,23C 97.2909,23.4152 98.6243,24.4152 99.5,26C 99.2155,27.9562 99.2155,30.1229 99.5,32.5C 101.103,32.3118 102.437,32.8118 103.5,34C 103.167,34.3333 102.833,34.6667 102.5,35C 103.967,36.0975 104.801,37.5975 105,39.5C 107.129,38.1373 107.629,38.4706 106.5,40.5C 107.5,41.3333 108.5,42.1667 109.5,43C 108.72,44.073 108.887,45.2396 110,46.5C 110.333,46.1667 110.667,45.8333 111,45.5C 111.333,46.8333 111.667,48.1667 112,49.5C 112.914,48.3463 113.747,48.513 114.5,50C 114.167,50.3333 113.833,50.6667 113.5,51C 114.191,52.0674 114.691,53.2341 115,54.5C 115.667,55.8333 116.333,55.8333 117,54.5C 117.333,56.1667 117.667,57.8333 118,59.5C 118.333,59.1667 118.667,58.8333 119,58.5C 119.883,61.1024 121.383,63.2691 123.5,65C 122.742,66.3639 123.242,67.5305 125,68.5C 126.666,67.6598 126.833,68.1598 125.5,70C 126.823,70.8159 127.489,71.9826 127.5,73.5C 123.167,73.5 118.833,73.5 114.5,73.5C 101.021,50.7632 86.688,28.2632 71.5,6C 71.8333,5.66667 72.1667,5.33333 72.5,5C 70.5359,3.54905 69.2026,1.71572 68.5,-0.5 Z"/></g>
<g><path style="opacity:1" fill="#41b6aa" d="M 80.5,-0.5 C 84.5,-0.5 88.5,-0.5 92.5,-0.5C 96.8709,7.50568 101.871,15.0057 107.5,22C 107.167,22.3333 106.833,22.6667 106.5,23C 108.904,23.5079 109.571,24.6745 108.5,26.5C 111.022,30.2921 114.188,34.2921 118,38.5C 122.933,49.4438 129.433,59.9438 137.5,70C 137.989,71.1385 138.322,72.3052 138.5,73.5C 134.833,73.5 131.167,73.5 127.5,73.5C 127.489,71.9826 126.823,70.8159 125.5,70C 126.833,68.1598 126.666,67.6598 125,68.5C 123.242,67.5305 122.742,66.3639 123.5,65C 121.383,63.2691 119.883,61.1024 119,58.5C 118.667,58.8333 118.333,59.1667 118,59.5C 117.667,57.8333 117.333,56.1667 117,54.5C 116.333,55.8333 115.667,55.8333 115,54.5C 114.691,53.2341 114.191,52.0674 113.5,51C 113.833,50.6667 114.167,50.3333 114.5,50C 113.747,48.513 112.914,48.3463 112,49.5C 111.667,48.1667 111.333,46.8333 111,45.5C 110.667,45.8333 110.333,46.1667 110,46.5C 108.887,45.2396 108.72,44.073 109.5,43C 108.5,42.1667 107.5,41.3333 106.5,40.5C 107.629,38.4706 107.129,38.1373 105,39.5C 104.801,37.5975 103.967,36.0975 102.5,35C 102.833,34.6667 103.167,34.3333 103.5,34C 102.437,32.8118 101.103,32.3118 99.5,32.5C 99.2155,30.1229 99.2155,27.9562 99.5,26C 98.6243,24.4152 97.2909,23.4152 95.5,23C 95.8333,22.6667 96.1667,22.3333 96.5,22C 93.8438,20.9971 92.8438,19.3304 93.5,17C 92.5838,16.6258 91.7504,16.1258 91,15.5C 89.6584,11.0733 86.8251,7.23993 82.5,4C 82.8333,3.66667 83.1667,3.33333 83.5,3C 82.6619,1.84461 81.6619,0.677944 80.5,-0.5 Z"/></g>
<g><path style="opacity:1" fill="#47b8a5" d="M 92.5,-0.5 C 96.5,-0.5 100.5,-0.5 104.5,-0.5C 109.158,7.68231 114.492,15.5156 120.5,23C 120.167,23.3333 119.833,23.6667 119.5,24C 121.643,26.7578 122.81,29.9245 123,33.5C 123.561,30.1522 125.061,27.4855 127.5,25.5C 121.487,43.2928 127.153,55.7928 144.5,63C 146.81,63.4966 149.143,63.6633 151.5,63.5C 149.614,64.0652 147.947,65.0652 146.5,66.5C 148.605,68.5916 150.272,70.9249 151.5,73.5C 147.167,73.5 142.833,73.5 138.5,73.5C 138.322,72.3052 137.989,71.1385 137.5,70C 129.433,59.9438 122.933,49.4438 118,38.5C 114.188,34.2921 111.022,30.2921 108.5,26.5C 109.571,24.6745 108.904,23.5079 106.5,23C 106.833,22.6667 107.167,22.3333 107.5,22C 101.871,15.0057 96.8709,7.50568 92.5,-0.5 Z"/></g>
<g><path style="opacity:1" fill="#4dbaa0" d="M 104.5,-0.5 C 110.833,-0.5 117.167,-0.5 123.5,-0.5C 125.894,5.28742 128.56,10.9541 131.5,16.5C 130.215,19.4736 128.882,22.4736 127.5,25.5C 125.061,27.4855 123.561,30.1522 123,33.5C 122.81,29.9245 121.643,26.7578 119.5,24C 119.833,23.6667 120.167,23.3333 120.5,23C 114.492,15.5156 109.158,7.68231 104.5,-0.5 Z"/></g>
<g><path style="opacity:1" fill="#4083b6" d="M 123.5,-0.5 C 562.167,-0.5 1000.83,-0.5 1439.5,-0.5C 1439.5,24.1667 1439.5,48.8333 1439.5,73.5C 1033.5,73.5 627.5,73.5 221.5,73.5C 202.699,71.1215 185.033,65.1215 168.5,55.5C 174.225,49.7079 176.892,42.7079 176.5,34.5C 176.472,31.0836 175.472,28.0836 173.5,25.5C 173.267,23.9382 172.6,22.6049 171.5,21.5C 171.167,20.5 170.5,19.8333 169.5,19.5C 167.704,17.1 165.37,15.4333 162.5,14.5C 160.898,12.9261 158.898,12.2594 156.5,12.5C 147.797,10.399 140.13,12.399 133.5,18.5C 132.833,17.8333 132.167,17.1667 131.5,16.5C 128.56,10.9541 125.894,5.28742 123.5,-0.5 Z"/></g>
<g><path style="opacity:1" fill="#20aac3" d="M 156.5,12.5 C 158.898,12.2594 160.898,12.9261 162.5,14.5C 150.76,19.7871 139.26,25.4538 128,31.5C 127.601,31.2716 127.435,30.9382 127.5,30.5C 127.402,28.4471 128.069,26.7804 129.5,25.5C 138.881,22.6481 147.881,18.3147 156.5,12.5 Z"/></g>
<g><path style="opacity:1" fill="#0fa3d1" d="M -0.5,14.5 C 2.13698,17.9887 4.63698,21.6553 7,25.5C 15.4716,38.1706 23.9716,51.3373 32.5,65C 32.1667,65.3333 31.8333,65.6667 31.5,66C 34.7892,67.4103 36.4559,69.9103 36.5,73.5C 32.8333,73.5 29.1667,73.5 25.5,73.5C 17.3978,60.4894 8.73112,46.8227 -0.5,32.5C -0.5,26.5 -0.5,20.5 -0.5,14.5 Z"/></g>
<g><path style="opacity:1" fill="#19a7c9" d="M 156.5,12.5 C 147.881,18.3147 138.881,22.6481 129.5,25.5C 130.569,23.0313 131.902,20.6979 133.5,18.5C 140.13,12.399 147.797,10.399 156.5,12.5 Z"/></g>
<g><path style="opacity:1" fill="#32b3b2" d="M 169.5,19.5 C 170.5,19.8333 171.167,20.5 171.5,21.5C 156.922,28.7889 142.255,36.1223 127.5,43.5C 127.371,41.7839 127.038,40.1172 126.5,38.5C 127.15,38.8039 127.817,39.1373 128.5,39.5C 141.945,32.3912 155.611,25.7246 169.5,19.5 Z"/></g>
<g><path style="opacity:1" fill="#3ab7ab" d="M 171.5,21.5 C 172.6,22.6049 173.267,23.9382 173.5,25.5C 158.93,32.1901 144.263,39.5235 129.5,47.5C 128.655,46.3285 127.989,44.9952 127.5,43.5C 142.255,36.1223 156.922,28.7889 171.5,21.5 Z"/></g>
<g><path style="opacity:1" fill="#51bd98" d="M 208.5,22.5 C 222.448,23.073 227.615,30.073 224,43.5C 214.852,53.2892 206.519,52.6225 199,41.5C 198.333,38.1667 198.333,34.8333 199,31.5C 201.406,27.5915 204.572,24.5915 208.5,22.5 Z"/></g>
<g><path style="opacity:1" fill="#28aebc" d="M 162.5,14.5 C 165.37,15.4333 167.704,17.1 169.5,19.5C 155.611,25.7246 141.945,32.3912 128.5,39.5C 127.817,39.1373 127.15,38.8039 126.5,38.5C 126.194,35.6146 126.527,32.9479 127.5,30.5C 127.435,30.9382 127.601,31.2716 128,31.5C 139.26,25.4538 150.76,19.7871 162.5,14.5 Z"/></g>
<g><path style="opacity:1" fill="#4184b6" d="M 207.5,27.5 C 216.995,26.1702 221.495,30.1702 221,39.5C 218.185,45.1691 213.685,47.0024 207.5,45C 200.97,39.0556 200.97,33.2223 207.5,27.5 Z"/></g>
<g><path style="opacity:1" fill="#45bca1" d="M 173.5,25.5 C 175.472,28.0836 176.472,31.0836 176.5,34.5C 175.849,33.9094 175.182,33.2427 174.5,32.5C 161.531,38.9844 148.531,45.4844 135.5,52C 134.748,52.6708 134.414,53.5041 134.5,54.5C 132.453,52.4504 130.786,50.117 129.5,47.5C 144.263,39.5235 158.93,32.1901 173.5,25.5 Z"/></g>
<g><path style="opacity:1" fill="#08a1d7" d="M -0.5,32.5 C 8.73112,46.8227 17.3978,60.4894 25.5,73.5C 16.8333,73.5 8.16667,73.5 -0.5,73.5C -0.5,59.8333 -0.5,46.1667 -0.5,32.5 Z"/></g>
<g><path style="opacity:1" fill="#50c196" d="M 176.5,34.5 C 176.892,42.7079 174.225,49.7079 168.5,55.5C 164.455,58.285 160.122,60.285 155.5,61.5C 147.257,62.5303 140.257,60.197 134.5,54.5C 134.414,53.5041 134.748,52.6708 135.5,52C 148.531,45.4844 161.531,38.9844 174.5,32.5C 175.182,33.2427 175.849,33.9094 176.5,34.5 Z"/></g>
<g><path style="opacity:1" fill="#42a895" d="M 131.5,16.5 C 132.167,17.1667 132.833,17.8333 133.5,18.5C 131.902,20.6979 130.569,23.0313 129.5,25.5C 128.069,26.7804 127.402,28.4471 127.5,30.5C 126.527,32.9479 126.194,35.6146 126.5,38.5C 127.038,40.1172 127.371,41.7839 127.5,43.5C 127.989,44.9952 128.655,46.3285 129.5,47.5C 130.786,50.117 132.453,52.4504 134.5,54.5C 140.257,60.197 147.257,62.5303 155.5,61.5C 154.713,63.1042 153.38,63.7709 151.5,63.5C 149.143,63.6633 146.81,63.4966 144.5,63C 127.153,55.7928 121.487,43.2928 127.5,25.5C 128.882,22.4736 130.215,19.4736 131.5,16.5 Z"/></g>
<g><path style="opacity:1" fill="#4fba9e" d="M 168.5,55.5 C 185.033,65.1215 202.699,71.1215 221.5,73.5C 198.167,73.5 174.833,73.5 151.5,73.5C 150.272,70.9249 148.605,68.5916 146.5,66.5C 147.947,65.0652 149.614,64.0652 151.5,63.5C 153.38,63.7709 154.713,63.1042 155.5,61.5C 160.122,60.285 164.455,58.285 168.5,55.5 Z"/></g>
</svg>
